/* XPM */
static char *db043cf868404dd1fa186563a217fbed1X5RCvznZqALsIwC[] = {
/* columns rows colors chars-per-pixel */
"64 64 3 1 ",
"  c #193C3E",
". c #265C42",
"X c #3E8948",
/* pixels */
"XXXXXXXXXXXXXXXXXXXXXXXXXXXXXXXXXXXXXXXXXXXXXXXXXXXXXXXXXXXXXXXX",
"................................................................",
"................................................................",
"................XX.................XX.....................XX....",
"...XX.........XX  ...XX...........X  .............XX......  X...",
".XX  .........   ...X  ....XX.....  ... ....XX....  X......  X..",
".   ................  .....  X........ ....X  .....  .......  ..",
"........XX..................  ............X  ...................",
"........  XX..... ........................  ....................",
".........   ....  ...............................  .....XX......",
"... .................XX..............XX........... ....X  ... ..",
".... ................  X... ......... XX..............X  ... ...",
"......................  X... ...XX....  .....X........   .......",
"................XXX....  ......X  ...........XX.................",
"...XX..... .....   ............  ............ XX..........XXX...",
"...  XX...  ...X  ............................  ..........   ...",
".....  .......X  ................  ...... .................  X..",
"..............  ........  ......  ........ .................  ..",
"......................... ...........XX...............XXX.......",
"....................XX.......XX......  X.......... ..X   .......",
"..XX........ .......  X......  X......  ......... ...   ........",
".XX ......... .......  .......  .............XX......  .........",
".   ...XX....................................  X...........XX...",
".  ....  X......................XX............  ...........  X..",
".......   X.....................  XX........................  ..",
".........  ...XXX........X.. ....   ...XX.................X.....",
".. ...........  XX......X .. ..........  X........  .....X .....",
". .............   X....X  ... .........   ......... ...XX  .....",
".................  ....  .......XX.....................   ......",
"...XX..........................X  .............XX......  ... ...",
"...  XX..... .................X   ...... ......  X........... ..",
"....   X... ..................   ........ ......  ..............",
".....   .............XX...................................XX....",
"..............XX.....  XX............XX...................  X...",
".............X  ......   ....XX.....X  ....XX.......XX.....  X..",
"............X  ........  ....  X...X  .....  X......  X.....  ..",
"....... ....  ................  ...  .......  X......  X........",
"...XX... ....................................  .......  ........",
"...  X.............  ...................................... ....",
"....  X.............. ....XX..... .......  ................. ...",
".....  ........XX.........  X... .......... ....XX... ..........",
"...............  XX........  X.......XX........XX .. ....XX.....",
"... ............   .........  .......  X.......  .......X  .....",
".  ......XXX.....  ...................  X......  ......X  ......",
".......XX   ............ ..............  ..............  ..XX...",
".......    ..............  ......XX........................  X..",
".......  ............XX.... ...XX  .......XX................  ..",
".XX.............XXX..  XX.....X   ........  XX....XX............",
".  X..........XX   ...   X....   ..........   ....  X....  .....",
"..  XX.. ....X   ......   ..........XX......  .....  X... ......",
"...   X.. ...  .....................  X.............  ..........",
".....  ..............................  X........ ...........XX..",
".........XX.......XX........XX........  X........ .........X  ..",
".........  X......  XX......  XX.......  ....XX........ ...  ...",
"..........  XX.....   X......   X...........X  ....... .........",
"... .......   X.....   .......   ..........X  .....XX...........",
".. .........   ....................... ....  ......  X..........",
".....XX.................XX............. .......X....  X...XX....",
"....X  ........XX......X  .. .....XX..........X .....  ...  X...",
"...X  ... ...XX  .. ...  .. .....X  .........X  ... .......  X..",
"...  ..... ..   .. ..............  .........X  ...  ........  ..",
"............................................  ..................",
"................................................................",
"                                                                "
};
