/* XPM */
static char *a64c2cd98913428dfb43bc9cf90134b6cUnKDPO2HViJGYow[] = {
/* columns rows colors chars-per-pixel */
"64 64 134 2 ",
"   c #75613F",
".  c #745F40",
"X  c #776444",
"o  c #7B6444",
"O  c #7C6847",
"+  c #776348",
"@  c #79654A",
"#  c #7E6A4A",
"$  c #826A46",
"%  c #846D4C",
"&  c #896F4C",
"*  c #85704E",
"=  c #8B724E",
"-  c #90754F",
";  c #867151",
":  c #8D7452",
">  c #8E7956",
",  c #8E7A59",
"<  c #917653",
"1  c #927A56",
"2  c #947D5A",
"3  c #997E5C",
"4  c #957F60",
"5  c #987F60",
"6  c #96805C",
"7  c #99815D",
"8  c #968161",
"9  c #9A8361",
"0  c #A48664",
"q  c #A88764",
"w  c #A48A67",
"e  c #A68966",
"r  c #A98865",
"t  c #A98B67",
"y  c #A88C67",
"u  c #AA8E67",
"i  c #AA8B66",
"p  c #A58B68",
"a  c #A68C69",
"s  c #A78D6A",
"d  c #A68E6A",
"f  c #A68C6A",
"g  c #A88B69",
"h  c #A98B69",
"j  c #AB8A69",
"k  c #AC8B68",
"l  c #AC8B6A",
"z  c #AA8C68",
"x  c #AB8D69",
"c  c #AA8E69",
"v  c #A98C6A",
"b  c #AA8C6A",
"n  c #AA8D6B",
"m  c #AB8D6B",
"M  c #A98F6A",
"N  c #A88E6B",
"B  c #AB8F6A",
"V  c #AD8C69",
"C  c #AE8D6A",
"Z  c #AC8E6A",
"A  c #A98F6C",
"S  c #AB8E6C",
"D  c #A98F6E",
"F  c #AB8E6E",
"G  c #AE8D6C",
"H  c #AC8E6C",
"J  c #AC8F6D",
"K  c #AD8F6D",
"L  c #AD8E6F",
"P  c #AB8D6B",
"I  c #B08F6C",
"U  c #AA906B",
"Y  c #AC906B",
"T  c #AA906D",
"R  c #AB916E",
"E  c #AD916C",
"W  c #AE906C",
"Q  c #AF916D",
"!  c #AF936C",
"~  c #AD906E",
"^  c #AE906E",
"/  c #AE916F",
"(  c #AF916F",
")  c #AC926F",
"_  c #AD916D",
"`  c #B1906F",
"'  c #B1926E",
"]  c #AE8F70",
"[  c #AD9271",
"{  c #B09270",
"}  c #B09371",
"|  c #B19371",
" . c #B29471",
".. c #B49B72",
"X. c #B29875",
"o. c #B69A75",
"O. c #B49A77",
"+. c #B79B76",
"@. c #B59A76",
"#. c #B99D76",
"$. c #BA9C76",
"%. c #B99B77",
"&. c #B59B78",
"*. c #B79A78",
"=. c #B79D7A",
"-. c #B69C7A",
";. c #B89B79",
":. c #B99B79",
">. c #B99D78",
",. c #BA9E79",
"<. c #B99C7A",
"1. c #BA9C7A",
"2. c #BA9D7B",
"3. c #BB9F7A",
"4. c #BD9F7B",
"5. c #B99F7C",
"6. c #BB9E7C",
"7. c #BC9E7C",
"8. c #BC9F7D",
"9. c #BB9D7A",
"0. c #BCA079",
"q. c #BFA17B",
"w. c #BAA07D",
"e. c #BBA17E",
"r. c #BEA07C",
"t. c #BDA07E",
"y. c #BEA17F",
"u. c #BFA37E",
"i. c #BCA07D",
"p. c #C09F7C",
"a. c #C0A27E",
"s. c #B99E80",
"d. c #BDA381",
"f. c #C1A483",
/* pixels */
"> 7 < 7 1 3 1 3 < 3 2 1 3 1 6 > > 6 > 6 1 7 1 3 , 4 > 7 2 2 2 1 > 7 1 6 1 7 6 , : 8 , 6 1 7 < 7 1 7 1 7 , 6 , , > 6 6 6 - 6 1 6 ",
"7 > 7 1 1 1 < & 3 1 1 1 2 7 6 6 8 2 6 > 1 7 2 2 ; % 3 , 2 3 2 1 6 6 2 1 1 1 + ; 8 , ; 6 1 > 7 = - - 2 1 2 X # 8 9 = 7 1 6 6 - 6 ",
"< 7 1 1 < : < < - < : : 6 > > > , + % , 2 2 2 % $ = 2 2 1 = < = : = : 2 , 2 2 O # ; : > 1 : : = y - - 6 2 @ % % 6 6 1 - 1 6 6 > ",
"6 2 6 = < @.v v j L f < 1 6 > 6 ; # % 4 , 3 1 * 6 < 2 1 < < <.L M w > = 1 2 2 , o o , 8 : M U M Y Y = < > 6 o % 6 > 6 6 1 6 > 6 ",
"2 2 1 1 >.i.6.S _ s M > = 1 6 $ # + + 4 2 2 7 - - 1 & - ..a.o.I U U m < : < 3 2 2 1 3 ; : +.0.Y U Y -.: : > 2 2 < 7 1 1 6 1 7 2 ",
"6 1 : w.>.i.>.m S m U p - > 6 # + + , 4 3 < 3 = - ..0.0.a.0.l l y m L 8.*.: & , 1 1 1 3 : < 0.$.Y Y =.w.> : 3 2 < = - 2 1 6 2 6 ",
"2 2 - X.6.8.8.L _ m } M = - 6 > , 4 4 2 3 = = - u ' 0.a.p.x k I V _ r _ <.6.8.-.: 2 7 2 < < $.a.Y m _ =.6.: : : - y < < 1 3 1 1 ",
"1 - - e.i.6.L m _ S M U = & 6 6 , 4 , > : < m V u u u u i C I I x Y l v n { <.<.: : = 2 3 = - $.V m S _ f 6.-.m M T Y = - 1 7 2 ",
"1 < w T _ L V _ f { l < < 2 1 3 1 7 : > D S L v V m L U U V U V r k V k Y V m m y T : 1 7 1 - - & _ m ` m m ` r s ( f S : 2 < 3 ",
"7 = : w L S _ V  .1.& - 1 1 2 4 6 1 = s S [ v L U L m S V Y V Y o.i ' C L m T L [ s : 1 < - 7 1 1 < m y _ m _ Y _ m s f = 2 3 1 ",
": 7 : < e L y x o.a.< & 1 7 3 1 - - < L f v L L L L S S U U U V r V p.$.V Y m T d M : = 6 6 - 6 < - _ L V V u ' m f D 5.- = 1 3 ",
"7 < 1 U _ m Y x a.1.< < 1 2 2 1 3 = y v L L L L L m T V Y u U V I p.p.p.Y _ m s M : = 1 6 1 6 - 3 < m { V _ x x m w.&.> = 2 3 1 ",
"6 : : s S m m Y 1.o.1.: 3 1 2 2 2 : : v m ` y x m V T U m U V Y o.a.$.Y Y V m T = : 6 6 6 - 6 6 < < s.r C u C ' i.+.1 - 2 7 < 1 ",
"2 = : M m S _ m 1.a.8.: 3 1 8 , 2 , , & >._ ` x V U U V Y U Y V k I ` y _ ' r U > > 6 1 6 6 6 6 < < s.I C i ! u >.< : 1 2 1 7 1 ",
"2 > : T L y ' V ' o.i.& 2 2 , * . 4 2 < i.>.$.C x x x u V Y I V V m V Y V e < < 1 6 6 6 - 6 - = < *.:.l C C x _ < < 1 7 6 6 6 1 ",
"3 1 : =.i.Y U Y Y x m < 2 2 % % % 4 4 1 > 8.0.$.x ' u u Y V V I V m Y u m < = 2 6 1 > 6 6 6 = : -.8.m ` x C ' r - 2 6 1 - 6 - 6 ",
": 9 = : =.w.M M m A : > , , + X # ; , 4 ; < = <.o.` V y y ' r u e ( m 0.: = 1 2 < 7 & : = 1 @.6.<._ m U I v ` m y < = 2 1 6 - 6 ",
"7 : 7 = : w.w.d < : : 1 2 , , X # % , 4 2 2 < < f.<._ ` V V ' Y ' ..0.= : 2 2 1 7 & < S ` f V m L r Y y l l V _ Y y < < 6 1 6 6 ",
"1 6 1 6 : : O.= = 2 3 1 2 8 4 4 . ; 4 , 4 < < < 1.i.r Y Y V r Y y 0.- = 2 2 2 : : _ v L v m n S T T m m m ] L ] m _ T : - 1 1 1 ",
"1 1 7 8 6 ; > : 3 2 1 7 2 , 4 , 2 4 , 2 2 3 3 = < >.Y y Y Y _ _ i.= - 2 1 3 2 : ] S v v ] L S ] s T m _ m L L ] _ e [ e 1 6 - 7 ",
"2 5 < , 1 7 > 3 < 7 1 1 < , ; : : 4 2 3 2 2 2 2 = < V y _ m m n >.: < 2 1 6 1 > D f D =.>.0.T = : : : < < w 5 s.d.5.A [ - 2 7 2 ",
", , : % 6 1 2 2 7 < - - : , ] D : ; : : 3 2 2 1 3 = Y ! m _ L -.s.> < 2 2 > 2 > : d.w.w.< = > 2 3 3 2 2 : < : < s.=.d.M - 1 1 6 ",
"4 % & % 4 , 2 2 & < < i.n [ m T n < : : > 1 1 3 2 : : e m U ] 6.*.> 1 6 > 2 2 2 ; : : : = 2 1 6 2 5 < 2 4 2 2 : * 1 +.< : 7 1 2 ",
"3 . . , 2 2 < = < 1.>.>.n f _ T ] ] ] v = 1 & 2 2 1 : = < m n 5., : 1 6 , 2 2 2 5 , 3 > 7 1 > : : : : : : 2 5 < 1 : = = 1 < 2 2 ",
", 7 , 2 4 < ; < = p.:.d.V Y ` V 0 ] f s.0.< % < < 3 2 1 < < : = % 5 2 4 . % 2 2 1 3 1 < < : : M M T s s : < = 6 1 2 1 6 1 6 1 1 ",
"4 > 4 2 < ; < : s.1.p.r Y V m _ ] h L L +.i.w.: 1 = 3 3 3 < 2 2 9 > 3 @ = % 1 2 3 = 1 *.f p y m T s T =.>.@.1 = 1 7 1 6 6 1 3 6 ",
", 4 4 , ; < 6.<.>.a.r { y y _ L x Y V V V f.$.1.<.< = = : 2 1 2 < 4 X % # 1 3 1 & 1 { f.] ] S U m s Y $.a.e.X.: : 1 1 1 1 6 1 1 ",
"2 2 3 : < -.6.6.L _ V ` e ` m _ V y m m Y x 1.$.<.V m m > : : 1 3 3 % * 2 3 1 2 < 8.f.L ] f D s ` U y ' 0.i.+.0.= 2 6 1 7 1 1 7 ",
"2 2 : = > f ] f V m ' I I I m m y ` Y V y ' V I L m m T T s , : 1 2 1 3 2 2 : = $.1.1.y T V m m i C ' $.a.$.i.e.- 3 6 2 1 1 1 7 ",
"1 > : > f ] ] S V y k I I I m V Y Y y ` I k I V V _ T s A M : ; 3 2 2 2 2 : < $.p.$.' x m U _ m x C C $.1.1.>.$.= 1 1 2 1 6 1 1 ",
"2 2 1 : f ] f ] ` Y x k V r _ Y y U ' y k x k ' V V m T T M ; > 3 1 2 2 = < <.>.1.I x ' m V r ` I V ' V a.$.1.< : 2 6 2 3 7 7 7 ",
"1 7 1 : > f n n m Y x I I V m m y ' y V I I C k I m _ s A : > 1 3 8 2 - - @.8.8.x ' x i x U l I V I V i Y i.- - 1 3 < = = - 1 1 ",
", 8 , 1 ; : w T r ` V I k ` V V y ( V V l I I l e ' U R - = 2 2 > 2 = 1 ..p.$.$.i ' i C u Y n ] 0 [ S S m m : 1 < 2 ; < ] f ; 3 ",
"8 : O 7 , : > D  .k I I i x ' y ( e m ` I I ` V ` >.0.U : 1 7 2 3 = 1 o.a.p.p.C ' i C C Y _ S f [ D S f : = : 2 < = [ f [ d.: 2 ",
"2 ; # X 3 2 ; S m S I V I x V _ y U _ m V v n s.>.i.= : 6 1 2 1 & 2 $.1.! p.i I i C m y _ f L [ s T a > : 1 1 2 : f ] [ -.<.> 1 ",
"2 2 * % , , > D S _ k I k C V 1.i.@.[ r L _ ` <.>.: : 1 2 6 1 < < ..o.i.! I I i ' y Y _ V _ [ S A : : : 2 2 3 = s.s.D f d.= 1 3 ",
"2 2 4 % 2 : ; D m _ L l  .p.$.p.>._ D S ] D f < : : 1 2 1 < = 1...a.I I V I V C _ i.V T f S s = = = 1 6 2 2 2 = w.[ y 1 : 3 2 1 ",
"4 , 4 4 3 > 3 : m S S V 1.8.a.o.= < : > : : ; = 1 2 2 2 = : <.8.a.a.I i V I I p.>.>.S S : : 1 : 6 6 6 2 2 2 2 < : M : = 1 1 1 3 ",
"2 2 , < , ; : D s m S _ <.1.o.- = > < 2 3 2 2 2 2 2 2 : < >.i.L i k V I V r I p.>.=.: : : 1 1 2 1 6 2 1 2 3 2 1 = = < 6 2 1 7 2 ",
"2 2 o X 2 2 : : T T m w.o.1 - - 2 2 2 2 2 2 % o , 7 = > f L v _ C C I V V ! $.$.: : : 2 1 3 2 6 2 1 2 1 2 1 7 1 6 6 < 2 2 2 2 2 ",
", 2 % o 1 8 1 > & - = > = - = 3 , 2 < 5 < 2 2 % X 1 : , w D L V i I i C n m m <.= , < 4 1 1 6 1 < 7 1 : : : : : = 6 6 2 1 6 - 6 ",
"8 % * > 1 1 7 1 7 = = = 6 6 7 1 4 < > = , : 2 2 ; 2 : =.w.T l I ' i ' i ] j n > < , 2 % = 2 1 2 < & : : : w S S : = 1 1 6 1 6 6 ",
", > 7 > 2 7 > 9 1 2 6 6 1 1 1 6 = < = > f , : 2 > 2 : w.5.6.L l y Y u ' *.] : = 2 , % * < 2 < - : _ m s L m _ _ w.= : 6 : 6 = 6 ",
"1 6 > = 1 = 2 1 6 1 6 < 2 2 1 = 1 -.j ] ] D < ; 3 , : > d.i.v ` Y y ' ..s.& : 5 2 * % 2 1 = 1 o.i.m S m e m [ >.e.w.= 6 6   6 > ",
"1 6 1 < >.=.< 2 1 2 1 2 2 2 = 1 $.U V y n S D : : 3 2 = =.@.' y x ' >.>.2 : 4 < % % 2 , < 1 o.1.r _ m _ V V  .>.-.=.: 2 % $ o 6 ",
"2 1 : S [ 6.<.< 3 1 2 6 2 = 1 <.1.m  .V n ] w s.< 1 2 : : w.0.U x x _ =.: = 5 & * , 4 ; & <.$.p._ _ r ` Y y L @.i.6.: 1 2 * * > ",
"2 = y T v 8.1.i.= 2 2 1 < +.@._ V Y r Y L v ] > = 3 3 2 = : y ! ' e Y ' : , 2 % 2 4 = < 8.a.p.$.x V V V r ` V V 6.<.< 2 2 > * 6 ",
"2 - L L V ` 8.8.< 1 1 > >.i._ V u x V V m L S -.< = 1 3 1 : : U u Y L m : 2 4 4 2 ; < *.8.<.p.C x I x ` I V m l 8.1 ; 3 2 , 6 > ",
"< 1 ..' f ] S D = 4 & < m L L L k l I k v V _ m X.3 : 2 7 1 = M f ] v < & 4 2 2 < < ..a.$.x x Y r ' Y m Y Y ` m @.1 = 1 1 3 1 1 ",
"7 & 1 e D D ] ; 2 2 : = ] v L V I I l I L L m m d.% : 3 1 6 - : , D < : 4 2 2 2 < ..a.a.x Y Y ' ' r ' y V Y m V { >.: 1 9 1 3 3 ",
"6 1 : s D ] *.< > 2 1 < f _ V L I I V ' Y m m _ -.< 2 2 1 6 6 1 % < : , 2 2 2 < - a.$.$.x C y x V Y x Y m Y m L f L m < - 7 1 1 ",
"1 6 : : f s.s.; 2 2 1 < V m m Y x k x V V V m U [ & 2 2 1 1 6 6 1 1 2 2 2 2 2 : < $.$.! i ! ` y Y V Y V 1.+.V L { v s : 3 1 6 1 ",
"1 6 , 1 , 1 : < 2 2 : : f _ L y I ` ' y m _ S f f : 1 3 2 1 1 1 1 : = < : 2 < : k V _ Y I V y ` Y Y y 1.f.1.S _ m  .y = < 2 2 7 ",
"2 6 3 1 2 2 2 2 6 = : s m S V Y Y $.$.` V m v n _ s < 1 3 1 6 6 < < ] s.: : 5 = V m ' r V V V Y V Y Y $.1.x _ m m Y = 2 2 1 1 1 ",
"1 7 1 2 : 1 < 2 2 = s T ( y ' V V $.a.@._ m D D S : : 1 2 = < : : ] f s.5., < < < e 1.i.i.' m m Y V V Y V ` m f U s = - - 1 1 7 ",
"1 1 > ; = > < 4 6 - T U u y Y m V _ $.0.L s ] f S : 1 2 - = +.0.S n f [ -.> 1 3 = ` Y a.1.>.S m V Y m m _ m S _ m : = 2 7 7 1 2 ",
"2 5 : S 5.s.< 2 < < s T m m y Y e _ f T m S v ] % 3 2 2 1 =.>.w.f ] w [ D < 4 2 = _ m _ V _ S m m Y V I m _ r - = 1 : 1 6 6 1 6 ",
"3 ; = S [ -.< 1 7 = >.>.0.m Y V _ m L m f > < : 3 2 2 , < =.d.w.8.f ] h ; 4 < 4 1 = m U _ S m T ` V Y i.i.< < - 1 : 7 : : = 2 1 ",
"2 2 : f S S U : < - < w.0.e.V ` m T = - : : 4 5 2 2 3 8 : >  .w.<.S S : ; < 8 2 > : < y f L f m y i.o.1.<.= 1 1 1 1 : : M - 6 2 ",
"2 2 : < -.[ y : 7 1 = = 0.0.$.y : = < 7 2 4 , < . % 1 2 1 : < ..S < > 2 4 4 2 , 7 : = : 1 m m s 0.i.< : = 2 - 6 2 : = 0.R = 1 1 ",
"1 2 1 = < 0.A = - 6 1 1 1 X.< < 1 2 2 1 2 2 3 X % ; 2 5 1 1 < - : : < 2 @ o , 2 2 1 2 2 : = T U = = = - 6 6 1 6 = = d ) ..> 1 6 ",
"2 2 2 2 = w.= : 6 1 6 1 2 = - < 2 2 7 1 , 2 X % % 4 1 < 1 3 2 3 1 2 2 4 % % + 2 2 6 2 2 1 : : - = 3 1 2 > 6 6 1 > > d - : > 1 2 ",
"6 6 7 1 = - - 6 1 1 1 6 1 6 < 7 1 6 1 1 2 2 ; * , 3 4 2 3 3 1 1 1 3 2 2 4 ; * X 1 > 2 2 6 7 2 2 - 7 2 3 6 - 6 - 6 = - = 1 2 6 < ",
"1 7 < 2 1 1 2 1 6 6 6 1 6 1 6 6 2 2 , 2 2 2 , , 3 2 3 1 1 1 < 3 3 1 2 2 , 4 , 2 2 2 6 1 6 < 2 1 7 1 1 2 6 6 - 6 6 6 1 6 6 1 2 7 "
};
