/* XPM */
static char *ee94685cdcb44aa09a4a30853a950ddbTKatx2uybT0Dg3vN[] = {
/* columns rows colors chars-per-pixel */
"64 64 6 1 ",
"  c #765B2E",
". c #8C6B35",
"X c #9A763B",
"o c #A98342",
"O c #C89D69",
"+ c #DFB17B",
/* pixels */
"oooooooooooooooooooooooooooooooooooooooooooooooooooooooooooooooo",
"ooooooXXoooooooooooooooo..oooooooooooo .oo.ooooXXXooo .ooooooooo",
"ooooXXXXXXXXooooo .oooo...oooXXXXXXoooo ...ooXXXOXXoo ..oooooooo",
"oooXX+OOOOOXoooo...oooo.ooooXX+OOOXXoooo  ooXOOOOOXXoo .oooooooo",
"oooX+++OOOOXXoo..  ooooooXXX+++OOOOXXXoooooXX++OOO+XXooooooooooo",
"ooX++++OOOOOXXo.  oooooXX+++++OOOOO++XXXXoooXX++OO++XXooXXXooooo",
"ooX++++OOOOOXXoooooooXXXOO+++OOOOOOO++++XooooX++OOO++XXXXOXXoooo",
"oXX+++OOOOOOXXoooooXXXOOOOOOOOOOOOOOOO++XXXooXX+OOOOO++OOOOXXooo",
"oXOOOOOOOOOXXoooooXXOOOOOOOOOOOOOOOOOOOOOOXoooXXXOOOOOOOOOOOXooo",
"oXXOOOOOO+XXooooooXOOOOOOOOOOOOOOOOOOOOOOOXXooooXXOOOOOOOOOOXooo",
"ooXXOOOO++XXoooooXXOOOOOOOOOOOOOOO++OOOOOOXXoooooXOOOOOOOOO+XXoo",
"ooXOOOOO++XXoooooXOOOOOOOOOOOOOOO+++OOOOOXXooooooXOOOOOOO++XXooo",
"oXXOOOOO+++XoooooXXOOOOOOOOOOOOO+++OOOOOXXoooooooX+OOOOO++XXoooo",
"oXXOOOOO+++XooooooXX+OOOOOOOOOOOOOOOOOOOXoooooooXX+OOOOO+XXooooo",
"oXXOOOOOO++Xooo. ooX+++OOOOOOOOOOOOOOOXXoooooooXX++OOOOOXooooooo",
"ooX++OOOOOOXoo...oooX+++OOOOOOOOOOOOOXXoooooooXX++OOOOOOXooooooo",
"ooXX++OOOOXXoo  ..ooXXX++OOOOOOOOOO+XXooooXXXX+++OOOOOOOOXXooooo",
"oooXX++OXXXoooo  .ooooXX++OOOOOOO++XXooooXXOOOOOOOOOOOOOOOXooooo",
"ooooXX+XXooooooo .oooooX++OOOOOOO+XXoooXXOOOOOOOOOOOOOOOOOOXXooo",
"oooooXXXoooooooooooooooXX+OOOOOO+XXooooXOOOOOOOOOOOOOOOOOOOOXooo",
"oooooooooooooXXXXoooooooXXOOOOOO+XoooooXOOO+++OXXXXXXOO+++OOXooo",
"oo..ooooooXXXXOOXXXXoooooXOOOOO++XXooooXX+++XXXoooooXXXX+++OXooo",
"o.. ooooXXX+OOOOOXXXXooooXXOOOO++XooooooXXXXXooooooooooXXX+XXooo",
"o  oooXXX+++OOOOOOOOXXXoooXXXOO+XXooooooooooooXXXXXXXooooXXXXooo",
"oooooXXXX+++OOOOOOO++XXXoooooXXXXooo .oooooXXXXOOOOOXXXooooooooo",
"ooooXXXX+++OOOOOOOOO+++XXXooooXoooo ..oooXX+OOOOOOO+++XXoooooooo",
"ooooXX++++OOOOOOOOOOO++++XXXXooooo ..oooXX++OOOOOOO++++XXooooooo",
"oooXX+++OOOOOOOOOOOOOO+++OOOXXXooo..ooooX++OOOOOOOOO++++Xooooooo",
"ooXXXOOOOOOOOOOOOOOOOOOOOOOOOOXXooooooXX+++OOOOOOOO+++++Xooooooo",
"ooXXOOOOOOOOOOOOOOOOOOOOOOOOOOXXoooooXX+++OOOOOOOOO+++++Xooooooo",
"oooXOOOOOOOOOOOOOOOOOOOOOOOOOOXXooooXX+++OOOOOOOOOOO+++XXooooooo",
"oooXXOOOOOOOOOOOOOOOOOOOOOOOOXXooooXX+++OOOOOOOOOOOOO+XXooXXXXoo",
"ooooXXOOOOOOOOOOOOOOOOOOOOOOXXooooXX++++OOOOOOOOOOOOOOXooXXXOOXo",
"oo ooXXOOOOOOOOOOOOOOOOOO++OXooooXX++++OOOOOOOOOOOOOXXXoXXOOO+Xo",
"o.. ooXOOOOOOOOOOOOOOOO+++XXooooXX++++OOOOOOOOOOOOOXXooXXOOO++Xo",
"oo..ooXOOOOOOOO+++OOOOO++XXooooXX+++OOOOOOOOOOOOOXXXoooX++OO+Xoo",
"ooo.oXXOOOOOO++++OOOOOOXXXoooXX+++OOOOOOO+OOOOOXXXoooooX+OOXXooo",
"oooooXoXOOOO++++XXXXXXXXooooXX++++OOOOO+++OOXXXXoooooooXXOXXoooo",
"oooooXXOOOOO+++XXXoooooooooXX++OOOOOOOO+++XXXoooooooooooXXXooooo",
"oo  ooXXOOO++XXXoooooo. ooXXOOOOOOOOOO++XXXooooooooooooooooooooo",
"oo. oooXXXXXXXXoooooooo. oXXOOOOOOOOOOO+XXoooooooooXXXXXXooooooo",
"o..ooooooXXXooooooXXXXoo.oX++OOOOOOOOOOXXoo..oooXXXXXOOOXXoooooo",
"ooooooooooooooooXXXXOXXoooX+++OOOOOO+OXXoo..ooXXXOOOOOOO+XXooooo",
"oooXXXoooooooooXX+OOOOXXooXX++OOOOO++XXoo..ooXX++OOOOOO+++Xoo oo",
"oooX++XoooooooXX+OOOOOOXXooX++OOOO++XXoo..ooXX++OOOOOOO+++Xo.. o",
"ooXOO++XoooooXX++OOOOOO+XooXX++OOOO+XXo..ooXX+++OOOOOOO+++Xoo..o",
"oXOOO+++XoooX++OOOOOOOOXXoooXXOOOOOOXoo.ooXX++++OOOOOOOO++Xooo.o",
"oXOOOO++XooX++OOOOOOOOO+XXoooXXOOOOOXooooXX++++OOOOOOOOO+XXooooo",
"oX+OOOOOXoXXOOOOOOOOOOOO+XXoooXOOOOXXooooX+++OOOOOOOOOOO+XXooooo",
"oXXOOOOXXoXXOOOOOOOOOOOO+XXoooXXXOXXooooX+++OOOOOOOOOOOOO+Xooooo",
"ooXOOO+XoooXOOOOOOOOOOOO+XooooooXXXooooXX+++OOOOOOOOOOOOOOOXoooo",
"ooXXO++XoooXOOOOOOOOOOOOOXoooooooooooooXX++OOOOOOOOO++OOOOOXoooo",
"ooooXXXXooXXOOOOOOOOOOOOOXoooooooXXXXooXOOOOOOOOOOO+++OOOOOXoooo",
"oooooooooXXOOOOOO++OOOOOOOXoooooXXO+XXoXOOOOOOOOOOO++OOOOOXXoooo",
"oooXXooooXOOOOOOO+++OOOOOXXooXXXXOO++XoXXO+++OOOOOOOOOOOOOXXoooo",
"ooXXXXXooXOOOOOOOO++OOOOOXooXX++OOOO+XooXOO+++OOOOOOOOOOOXXooooo",
"ooXO++XooXOOOOOOOOOOOOOOXoooX+++OOOOOXooXOOOOOOOOOOOOOOXXXoooooo",
"oXXOO+XooX+++OOOOOOOOXXXooooX++++OOOXoooXXOOOOOOOOO++XXXXooXXXoo",
"ooXOOOOXoXX+++OOOOXXXXooooooXX+++OOXXooooXXOOOOOO++++XooooXXOXoo",
"ooXX+OOXooXX+++OXXXooooo .oooXX+OXXooooooXXXXOOO++XXXooooXX+OXoo",
"oooXX+OXooooX+XXooooooo ..ooooXXXXoo  ooooooXXOOXXXXooooXXOO+Xoo",
"ooooX+XXoooooXXooooooo ..ooooooooooo.. ooooooXXXXoooooooXXOXXXoo",
"ooooXXXooooooooooooooo..ooooooooooooo.. oooooooooooooooooXXXoooo",
"oooooooooooooooooooooooooooooooooooooooooooooooooooooooooooooooo"
};
