/* XPM */
static char *af881e5204fb4945b72972b42b12ff8cGG7QIOCTYWEDgqwq[] = {
/* columns rows colors chars-per-pixel */
"64 64 4 1 ",
"  c black",
". c #A22633",
"X c #8B9BB4",
"o c #C0CBDC",
/* pixels */
"                                                                ",
"                                                                ",
"                                                                ",
"                                                                ",
"                                                                ",
"                                                                ",
"                                                                ",
"                                                                ",
"                                                                ",
"                                                                ",
"                                                                ",
"                                                                ",
"                                                                ",
"                                                                ",
"                                                                ",
"                                                                ",
"                                                                ",
"                                                                ",
"                                                                ",
"                                                                ",
"                                                                ",
"                                                                ",
"                                                                ",
"                                                                ",
"                                                                ",
"                                                                ",
"                                                                ",
"                                                                ",
"                                                                ",
"                                                                ",
"                                                                ",
"                                                                ",
"                                                                ",
"                                                                ",
"                                                                ",
"                                                                ",
"                                                                ",
"                                                                ",
"                                                                ",
"                                                                ",
"                                                                ",
"                                                                ",
"                                                                ",
"                                                                ",
"                                                                ",
"                                                                ",
"                                                                ",
"                                                                ",
"                                                                ",
"                           .             .       .              ",
"            .              .             .       ..             ",
"            .      .       .       .     .       .              ",
"            ..     .       X       .     X       X              ",
"            Xo     X       X       .     Xo      Xo   .         ",
"            Xo     X       Xoo     X    XXo      Xo   .         ",
"     .      Xo     Xo  .  Xooo     Xo   Xoo      Xo   o         ",
"     ..     Xoo    Xo  .. Xooo    XXo    oo      Xo   o    .    ",
"     o.    Xooo    Xoo Xo Xooo    Xoo   Xooo     Xo  Xo    .    ",
"     oo  . Xooo    Xoo Xoooooo    Xoo   Xooo  . Xoo  Xo   .o    ",
"  . Xoo Xo Xoooo  XXoo Xooooooo  XXooo   ooo Xo Xoo  Xo . Xo .  ",
"  o XooXXoooooooo Xooo Xooooooo  Xoooo   ooo Xoooooo Xooo Xo .. ",
" Xo Xooooooooooooooooooooooooooo Xooooo Xooooooooooo ooooooo oo ",
" Xooooooooooooooooooooooooooooooooooooooooooooooooooooooooooooo ",
"XXXXXXXXXXXXXXXXXXXXXXXXXXXXXXXXXXXXXXXXXXXXXXXXXXXXXXXXXXXXXXXX"
};
