/* XPM */
static char *_7a197dcb15a46fac6ab7a9e9d84a5513QfFWJbYvUcdIO8H[] = {
/* columns rows colors chars-per-pixel */
"64 64 6 1 ",
"  c black",
". c #2F2500",
"X c #3C3001",
"o c #4F3F01",
"O c #5C4A07",
"+ c #806500",
/* pixels */
"                                                                ",
"                                                                ",
"                                                                ",
"                                                                ",
"                                                                ",
"                            +                                   ",
"                            +                                   ",
"                            +                                   ",
"                            +                                   ",
"                            ++                                  ",
"                   +        ++                                  ",
"                   +        ++                                  ",
"                   +       +++        +                         ",
"                   +       +++        +                         ",
"                   ++      +O+        +                         ",
"                    +      +O+        +       +                 ",
"                    +      +O+       ++       +                 ",
"                    +      +O++      ++      ++                 ",
"                    +      +O++      ++      +                  ",
"                    +      +O++      +       +                  ",
"                    ++     +O++      +       +                  ",
"        +           ++     +OO+      +      ++                  ",
"        +           ++     +OO+      +      ++                  ",
"        ++          ++     +OO+     ++      +                   ",
"         +           +     +OO+     ++      +                   ",
"         +           +    ++OO++    ++     ++                   ",
"         ++     +    +    ++OO++    ++     ++      +            ",
"         ++     +    ++   ++OO++    ++     ++      +            ",
"          +     +    ++   ++OO++    ++     ++     +             ",
"          +     ++   ++   ++OO++    ++    ++      +             ",
"          ++     +   ++   ++OO++   +++    ++     ++             ",
"          ++     +   ++   ++OO++   ++     ++     ++             ",
"    +      +     +   ++   ++OO++   ++     ++     +              ",
"    +      ++    ++  +++  ++OOO++  ++    +++    ++              ",
"     +     ++    ++   ++  +OOOO++  ++    ++     ++              ",
"     +     ++    ++   ++  +OOOO++  ++    ++     +               ",
"      +     ++   ++   ++  +OOOO++  ++    ++    ++               ",
"      +     ++    ++  ++  +OOoO++  ++   +++    ++               ",
"       +    ++    ++  +++++OOoO++ +++   +++   ++   +            ",
"       +    +++   ++  +++++OOoO++ +++   ++    ++   +            ",
"       ++    ++   ++  ++O++OOoO++ +O+   ++    ++  +             ",
"        +    +++  +++ ++O++OOoO++++O+  +++   +++  +             ",
"        ++   +O+  +O+ ++O++OOoO+++OO+  +O+   ++  ++             ",
"  +      +   +O+  +O+  +O++OOoO+++OO+  +O+   O+  ++  +          ",
"   +     ++   OO  OO+  +OO+OooO+++OO   OO+  OO+ ++   +          ",
"   +     ++   OO  OOO+ +OO+OooOO++OO  +OO   OO  ++  ++          ",
"    +     ++  OOO OOO+ +OO+OooOO+OoO  +O+  O+O +O+  +           ",
"    ++    +O  OOO OOO+ +OO+OooOO+ooO  OO+  OO+ OO  ++           ",
"     ++    OO  OO  OO+ OOO+OooOO+oOO  OO+ OOO  O+  ++           ",
"     ++    OOO OOO OOO+OOO+OooOOOoO+ +OO+ OOO +O+  +            ",
"      +O    OO OOO OOO+OOOOOooOOOoO+ OOO OOOO O+  ++            ",
"       OO   OOOOOO OOOOOooOOoooOOoOO OoO OOoO+O+  ++            ",
"  ++   OOO  OOOooOOOoOOOooOOooooOoOO ooOOOooOOO+ OO     O       ",
"   ++  OOOO OoOoooOOooOOooOOooooOoOOOooOOOoO+OO+ OO    OO       ",
"   ++O  OOOOOoOoooOOooOOooOOOoooooOOOooOOooOO+O OO+    O        ",
"    +OO  ooOOooOooOOoooOooOOOoooooOOOooOOooOO+O OO+   OO        ",
"     OOO OoOOooOooOOooXooOoOooXXooOOOooOoooOOo+O+O   OO   O     ",
"     ooOOOooOOoOOooOooXooooOoXXXXoOOoooOoooOOo O+O  OOO  OO     ",
"   +OOooOOooOOooOoooOoXXoooOXXXXXoOOXXoOooOOoOOOO+  oo  OO      ",
"    OOoooOOooOooOXooOoXXXoooXXXXXoOOXXooooOOoOOoO  Ooo OoO      ",
"     OooooOoooXooXXooXXXXXoXXX..XoOOXXXoXoOooOooO OooO ooO      ",
"     OOoXooOXXXXXXXooX..XX.X.X..XXoO..XoXXOoXoXoOOXXo oooO      ",
"      OoXXXoXX...XX..X...........Xo....X.XX.XXXXOX..X.Xoo       ",
"      OooX..X.........................................XoO       "
};
