/* XPM */
static char *_3a46e450cfd4daf984d2b5adde7cab2Hc3LkiXy7GVAcWIz[] = {
/* columns rows colors chars-per-pixel */
"64 64 3 1 ",
"  c #265C2B",
". c #45893E",
"X c #84C74D",
/* pixels */
"XXXXXXXXXXXXXXXXXXXXXXXXXXXXXXXXXXXXXXXXXXXXXXXXXXXXXXXXXXXXXXXX",
"................................................................",
"...XXXX......... .....XXX..XX.....X........XX....XXX... ...XXX..",
"..XX  ......XX... ...XX ....  ...XXXXX.. .. XX...  ... ...XX ...",
"..  .... ..XXXX.....XX  ..........   X... .. XX............  ...",
"....... ....   XX....  .............  .......  ......XXX........",
"..............   ............XX....................... XX.......",
".. ..................... ..XX  .. ....XXX.........XX...  .......",
"..  ..XX..........  ... ...X  .... ..XX  ........XX .......XX...",
".....XX ......... .......... ........X  ........X  ........ XX..",
"....X   .....XX.....XXX............... ....XXX... .........  X..",
".....  .....  X....XX  ....... ..XXX......   XX.......XX.... ...",
"............  XX...X  ......... .  XX......   X......  XXX......",
"..XX....  ...   ...  .....XXX.....  XX......   ..  ...   X......",
".XX ..... .... ..........X  .......  ... ........ .....   ......",
".   ............  .......  .............. ..................XXX.",
". ...XX.......... ..........................................  X.",
"..... XXX...........XXX.......XXX.....XXX......XXX..XXX.. ...  .",
"......  X.....XX....  XX......  XX....X  .X...   XX.  XX.. .....",
".. ...  .....  XX....   .......  X...XX .. X...  XX..  X........",
". ........ ...  X..........X....  ...  ...  ....  ....  ....XX..",
".....X... .....  ..... ...X  .............. ...............XX ..",
"...XXX............... ....X .......  ...............  ....XX ...",
"...X  .....X.............. ......... ......XX....... .....X ....",
"..XX ....XXX......XX...XX......XX........XXX ...XX..............",
"..  .....X  ....XX  ...  X....X  ..XX....X   ...  X...XXX.......",
"........X  ....XX  .....  ...X  ... XX...   .....  ....  X......",
".. ............   ...........  ..... XX........... ....   ..XX..",
". ......XX.. ... ....XX.........  ...  .... ............  ..  X.",
".......XX ... ........ .......... ........ ....XX............  .",
"...XX... .................XX.................... X..............",
"...  X.....XX......XXX...X  ....X......XX....X.........  .......",
"....  X....  X.....  X...   .... X.....  ...  X.....X... .......",
"....   ....   .. ...  ...  .....  X...X  ....  X...X X.....XX...",
"...... .....   .. ... ....... ...  ...  ......  ..X  ......  ...",
". .......................... ....................X  ...X.... X..",
".. .....................XX............................. X...  ..",
"............  .........X  ....XX.....XX....X... .......  X......",
"...X.....X...  ..XX...X   ....  X...X  ...X X... .......  ......",
"..X X.... X......  X..  .......  ..X  ....   X.....XX...........",
".X   ....  XX.....  X........... .. .......   ....X  ...........",
".  .... ..   ...... ...................  ........X  .....X....X.",
"........ ............................. ..........   ....X X..X .",
"...............  ....XX....X...XX........................  X.  .",
".....XX.............X  ...X ..   ..XX...XX........... ..... ....",
"....X  ....XX......X  ....   ......  ...  X...XX..XX.. .........",
"...X  .....  X.....  ......   ....X  ....  ...  ..  X......... .",
"...  .......  X.............. ...X  ...... ..X  ...  X...XXX. ..",
".............  .......  ......... ..... ....X  .....  ..X   ....",
". ....... ...........  ............... ...... .... ....X   .....",
".. ..XX. ....... .........XX..................... ......  ......",
".....  .....XX. ..XX.....X  ....XX......XX..................XXX.",
".....  X...X  ....  X...X   ....  XX....  ....XX............   .",
"......  ...   .....  .... .......   ...X  ....  X....XXX.....  .",
"....... ..   ..................... ....  ......  X...   .. .....",
"........... ................. ............. .... ...X  .. ......",
"......................XX.... ............... ......X   ....XX...",
"...XX...........XX....X .......XXX....XX............   ....  ...",
"..X  ....X......  ....  X.....X  X....  .....XXX..........   ...",
"...   ..X X....X  .  ..  X...X    ....  X...X   ....XX....  ....",
"....  ...  X...  ... ...  ...   .......   ...   ...X   ....... .",
"..........  .................. ......... ....  .....  ....... ..",
"................................................................",
"                                                                "
};
